<?xml version="1.0" encoding="UTF-8" standalone="no"?>
<!-- Created with Inkscape (http://www.inkscape.org/) -->

<svg
   width="562.68939mm"
   height="285.21698mm"
   viewBox="0 0 562.68939 285.21698"
   version="1.1"
   id="svg1530"
   xmlns:inkscape="http://www.inkscape.org/namespaces/inkscape"
   xmlns:sodipodi="http://sodipodi.sourceforge.net/DTD/sodipodi-0.dtd"
   xmlns="http://www.w3.org/2000/svg"
   xmlns:svg="http://www.w3.org/2000/svg">
  <sodipodi:namedview
     id="namedview1532"
     pagecolor="#ffffff"
     bordercolor="#000000"
     borderopacity="0.25"
     inkscape:showpageshadow="2"
     inkscape:pageopacity="0.0"
     inkscape:pagecheckerboard="0"
     inkscape:deskcolor="#d1d1d1"
     inkscape:document-units="mm"
     showgrid="false" />
  <defs
     id="defs1527" />
  <g
     inkscape:label="Layer 1"
     inkscape:groupmode="layer"
     id="layer1"
     transform="translate(-1.6359587,-1.55135)">
    <g
       id="g10"
       transform="matrix(0.01510981,0,0,-0.01358176,1.6359588,286.76831)"
       inkscape:export-filename="background.svg"
       inkscape:export-xdpi="25.402161"
       inkscape:export-ydpi="25.402161">
      <path
         d="M 0,6368.5 V 21000 h 13005.7 c -196.2,-1513.7 -925.2,-2920.2 -2532.5,-3341.2 -323.7,-84.8 -650.28,-119.5 -978.39,-119.5 -1088.4,0 -2195.53,381.7 -3287.31,582.9 -335.6,61.9 -690.98,96.7 -1046.06,96.7 -1148.18,0 -2295.58,-363.9 -2780.74,-1355 -506.5,-1034.5 -44,-2276.5 550.9,-3262.7 594.9,-986.3 1345.3,-1953.8 1441.3,-3101.5 C 4507.9,8885.3 3242.3,7417.9 1750,6787.4 1188.39,6550.1 598.105,6413.9 0,6368.5"
         style="opacity:0.8;fill:#222840;fill-opacity:1;fill-rule:nonzero;stroke:none"
         id="path14" />
      <path
         d="m 8774.9,18146.3 c -61,-1409.1 -1233,-2788.4 -2643.1,-2757.2 C 4670,15421.5 3468,16826.8 2008.9,16731.7 1307.6,16686 679.801,16294.2 0,16115.8 V 21000 h 7699.2 c 677.3,-810.5 1121,-1810.1 1075.7,-2853.7"
         style="fill:#222840;fill-opacity:1;fill-rule:nonzero;stroke:none"
         id="path16" />
      <path
         d="M 37240,0 H 25652.9 c 38.6,1277 667.9,2536.6 1801.7,3099.4 696.1,345.5 1489.9,412.9 2299.7,412.9 258.7,0 519,-6.9 778.3,-13.8 259.2,-6.8 517.6,-13.7 772.1,-13.7 1039.5,0 2017.5,114.5 2753.7,810.9 1200,1135.3 924,3101 385.7,4662.8 -538.4,1561.8 -1251.6,3262.6 -643.1,4798.4 515.2,1300.3 1938.1,2065.4 3439,2227.1 V 0"
         style="opacity:0.8;fill:#222840;fill-opacity:1;fill-rule:nonzero;stroke:none"
         id="path18" />
      <path
         d="M 37240,9736.5 V 0 h -7656.5 c 75.1,101.602 145.4,211.102 210.1,330.5 627.2,1156.9 616.2,2635.3 -28.2,3782.8 -322,573.4 -783.6,1057.6 -1118.7,1623.4 -335.2,565.8 -536.5,1274.8 -278.3,1879.6 374.6,877.2 1543.6,1131.1 2467.8,895.1 924.1,-236.1 1718.5,-818 2602.3,-1176.5 883.9,-358.6 2005.5,-445.3 2695.8,212.9 482.1,459.5 627.6,1157 886,1770.8 59.7,141.6 133.4,283.7 219.7,417.9"
         style="fill:#222840;fill-opacity:1;fill-rule:nonzero;stroke:none"
         id="path20" />
      <path
         d="M 20266.5,0 H 151.398 C 1327.91,1595.6 3300.51,2560.1 5277.73,2560.1 c 289.9,0 579.56,-20.7 867.17,-63.2 1626.54,-240.3 3174.91,-1114.7 4793,-1114.7 160.3,0 321.3,8.6 483.1,27.2 1455.3,167.5 2678.3,1117 3974.3,1799.9 763.8,402.5 1663.9,705.1 2513.5,705.1 592,0 1159.4,-146.8 1639.6,-509.2 1006,-759.4 1165.5,-2199.9 718.1,-3405.2"
         style="opacity:0.8;fill:#222840;fill-opacity:1;fill-rule:nonzero;stroke:none"
         id="path22" />
      <path
         d="M 13771.1,0 H 0 v 3129.6 c 1819.56,110.6 3095.31,619.4 3952.36,1097.5 1701.81,949.4 2807.42,2366.2 4168.34,2046.7 448.62,-105.3 778.91,-363 831.11,-407.8 583.28,-499.6 713.72,-1301.1 966.99,-2102.5 387,-1224.7 1144.1,-2252.8 2275.3,-2878 571.4,-315.801 1143.5,-534.598 1577,-885.5"
         style="fill:#222840;fill-opacity:1;fill-rule:nonzero;stroke:none"
         id="path24" />
      <path
         d="m 32003.8,17518.7 c -273.3,0 -546.4,29 -814.3,89.2 -1361.5,305.9 -2468.2,1302.2 -3791.1,1746.8 -570.1,191.7 -1160,275.3 -1758.5,297.5 -117,4.3 -234.4,6.3 -352,6.3 -811.1,0 -1634,-95 -2441.6,-170.6 -309.8,-29 -719.3,-51.8 -1177.2,-51.8 -1605.8,-0.1 -3808.1,281 -4406.7,1563.9 h 18706.2 c -65.5,-592 -258.5,-1168.4 -581.2,-1670.5 -722.4,-1123.8 -2053.7,-1810.8 -3383.6,-1810.8"
         style="opacity:0.8;fill:#222840;fill-opacity:1;fill-rule:nonzero;stroke:none"
         id="path26" />
      <path
         d="m 32804.2,21000 c -148.7,-106.8 -307.3,-198.2 -471.6,-270.9 -950.6,-420.5 -2033,-373.8 -3071.7,-330.7 -1038.6,43.1 -2127,64.8 -3058.3,-397 -200.1,-99.2 -386.4,-217.4 -562.7,-349.2 -964.5,-721.1 -1631.2,-1852.3 -2640.3,-2541.4 -1377,-940.5 -3356.8,-885.3 -4679.3,130.4 -1192.5,915.7 -1527.1,2337.2 -1649.4,3758.8 h 16133.3"
         style="fill:#222840;fill-opacity:1;fill-rule:nonzero;stroke:none"
         id="path28" />
      <path
         d="m 15725.9,19259.4 h -15 c 0,-228.7 -92.6,-435.6 -242.5,-585.5 -149.9,-149.9 -356.8,-242.5 -585.5,-242.6 -228.7,0.1 -435.6,92.7 -585.5,242.6 -149.8,149.9 -242.5,356.8 -242.5,585.5 0,228.7 92.7,435.5 242.5,585.4 149.9,149.9 356.8,242.6 585.5,242.6 228.7,0 435.6,-92.7 585.5,-242.6 149.9,-149.9 242.5,-356.7 242.5,-585.4 h 15 15 c 0,473.8 -384.1,858 -858,858 -473.8,0 -858,-384.2 -858,-858 0,-473.9 384.2,-858 858,-858.1 473.9,0.1 858,384.2 858,858.1 h -15"
         style="fill:#222840;fill-opacity:1;fill-rule:nonzero;stroke:none"
         id="path30" />
      <path
         d="m 32180.2,10971.1 h -10 c 0,-90.9 -36.8,-173.1 -96.4,-232.7 -59.6,-59.5 -141.8,-96.3 -232.7,-96.3 -90.9,0 -173.1,36.8 -232.7,96.3 -59.5,59.6 -96.3,141.8 -96.3,232.7 0,90.9 36.8,173.1 96.3,232.7 59.6,59.6 141.8,96.4 232.7,96.4 90.9,0 173.1,-36.8 232.7,-96.4 59.6,-59.6 96.4,-141.8 96.4,-232.7 h 10 10 c 0,192.8 -156.3,349.1 -349.1,349.1 -192.8,0 -349,-156.3 -349,-349.1 0,-192.8 156.2,-349 349,-349 192.8,0 349.1,156.2 349.1,349 h -10"
         style="fill:#222840;fill-opacity:1;fill-rule:nonzero;stroke:none"
         id="path32" />
      <path
         d="m 5904.51,7384.6 h -10 c -0.01,-125.6 -50.87,-239.2 -133.15,-321.5 -82.29,-82.3 -195.87,-133.1 -321.43,-133.1 -125.56,0 -239.15,50.8 -321.44,133.1 -82.28,82.3 -133.14,195.9 -133.14,321.5 0,125.5 50.86,239.1 133.14,321.4 82.29,82.3 195.87,133.1 321.44,133.1 125.56,0 239.14,-50.8 321.43,-133.1 82.28,-82.3 133.14,-195.9 133.15,-321.4 h 10 10 c -0.01,262.1 -212.48,474.5 -474.58,474.5 -262.11,0 -474.58,-212.4 -474.58,-474.5 0,-262.2 212.47,-474.6 474.58,-474.6 262.1,0 474.57,212.4 474.58,474.6 h -10"
         style="fill:#222840;fill-opacity:1;fill-rule:nonzero;stroke:none"
         id="path34" />
      <path
         d="m 9520.45,14067.1 c 0,-410 -332.37,-742.4 -742.38,-742.4 -410,0 -742.37,332.4 -742.37,742.4 0,410 332.37,742.4 742.37,742.4 410.01,0 742.38,-332.4 742.38,-742.4"
         style="fill:#222840;fill-opacity:1;fill-rule:nonzero;stroke:none"
         id="path36" />
      <path
         d="m 32639,18720.4 c 0,-220.3 -178.6,-398.9 -399,-398.9 -220.3,0 -398.9,178.6 -398.9,398.9 0,220.3 178.6,398.9 398.9,398.9 220.4,0 399,-178.6 399,-398.9"
         style="fill:#222840;fill-opacity:1;fill-rule:nonzero;stroke:none"
         id="path38" />
      <path
         d="m 24737.5,2417.5 c 0,-727.9 -590.1,-1318.1 -1318,-1318.1 -728,0 -1318.1,590.2 -1318.1,1318.1 0,728 590.1,1318.1 1318.1,1318.1 727.9,0 1318,-590.1 1318,-1318.1"
         style="fill:#222840;fill-opacity:1;fill-rule:nonzero;stroke:none"
         id="path40" />
      <path
         d="m 25161.3,15864.5 v -652.4 c 0,-12.2 9.8,-22 22,-22 12.1,0 21.9,9.8 21.9,22 v 652.4 c 0,12.2 -9.8,22 -21.9,22 -12.2,0 -22,-9.8 -22,-22"
         style="fill:#222840;fill-opacity:1;fill-rule:nonzero;stroke:none"
         id="path42" />
      <path
         d="m 24857,15516.3 h 652.5 c 12.1,0 22,9.9 22,22 0,12.1 -9.9,21.9 -22,21.9 H 24857 c -12.1,0 -21.9,-9.8 -21.9,-21.9 0,-12.1 9.8,-22 21.9,-22"
         style="fill:#222840;fill-opacity:1;fill-rule:nonzero;stroke:none"
         id="path44" />
      <path
         d="m 12530,5564.2 v -891.4 c 0,-16.6 13.4,-30 30,-30 16.6,0 30,13.4 30,30 v 891.4 c 0,16.6 -13.4,30 -30,30 -16.6,0 -30,-13.4 -30,-30"
         style="fill:#222840;fill-opacity:1;fill-rule:nonzero;stroke:none"
         id="path46" />
      <path
         d="m 12114.3,5088.5 h 891.4 c 16.6,0 30,13.5 30,30 0,16.6 -13.4,30 -30,30 h -891.4 c -16.6,0 -30,-13.4 -30,-30 0,-16.5 13.4,-30 30,-30"
         style="fill:#222840;fill-opacity:1;fill-rule:nonzero;stroke:none"
         id="path48" />
      <path
         d="m 36425.3,18426 c 0,-80.7 -65.4,-146.2 -146.1,-146.2 -80.8,0 -146.2,65.5 -146.2,146.2 0,80.7 65.4,146.2 146.2,146.2 80.7,0 146.1,-65.5 146.1,-146.2"
         style="fill:#222840;fill-opacity:1;fill-rule:nonzero;stroke:none"
         id="path50" />
      <path
         d="m 36425.3,17012.3 c 0,-80.8 -65.4,-146.2 -146.1,-146.2 -80.8,0 -146.2,65.4 -146.2,146.2 0,80.7 65.4,146.1 146.2,146.1 80.7,0 146.1,-65.4 146.1,-146.1"
         style="fill:#222840;fill-opacity:1;fill-rule:nonzero;stroke:none"
         id="path52" />
      <path
         d="m 36425.3,15598.5 c 0,-80.7 -65.4,-146.1 -146.1,-146.1 -80.8,0 -146.2,65.4 -146.2,146.1 0,80.8 65.4,146.2 146.2,146.2 80.7,0 146.1,-65.4 146.1,-146.2"
         style="fill:#222840;fill-opacity:1;fill-rule:nonzero;stroke:none"
         id="path54" />
      <path
         d="m 36425.3,14184.8 c 0,-80.7 -65.4,-146.2 -146.1,-146.2 -80.8,0 -146.2,65.5 -146.2,146.2 0,80.7 65.4,146.2 146.2,146.2 80.7,0 146.1,-65.5 146.1,-146.2"
         style="fill:#222840;fill-opacity:1;fill-rule:nonzero;stroke:none"
         id="path56" />
      <path
         d="m 36425.3,12771.1 c 0,-80.7 -65.4,-146.2 -146.1,-146.2 -80.8,0 -146.2,65.5 -146.2,146.2 0,80.7 65.4,146.2 146.2,146.2 80.7,0 146.1,-65.5 146.1,-146.2"
         style="fill:#222840;fill-opacity:1;fill-rule:nonzero;stroke:none"
         id="path58" />
      <path
         d="m 36425.3,11357.4 c 0,-80.8 -65.4,-146.2 -146.1,-146.2 -80.8,0 -146.2,65.4 -146.2,146.2 0,80.7 65.4,146.1 146.2,146.1 80.7,0 146.1,-65.4 146.1,-146.1"
         style="fill:#222840;fill-opacity:1;fill-rule:nonzero;stroke:none"
         id="path60" />
      <path
         d="m 1107,13039.4 c 0,-80.7 -65.44,-146.1 -146.172,-146.1 -80.719,0 -146.16,65.4 -146.16,146.1 0,80.8 65.441,146.2 146.16,146.2 80.732,0 146.172,-65.4 146.172,-146.2"
         style="fill:#222840;fill-opacity:1;fill-rule:nonzero;stroke:none"
         id="path62" />
      <path
         d="m 1107,11625.7 c 0,-80.7 -65.44,-146.1 -146.172,-146.1 -80.719,0 -146.16,65.4 -146.16,146.1 0,80.7 65.441,146.2 146.16,146.2 80.732,0 146.172,-65.5 146.172,-146.2"
         style="fill:#222840;fill-opacity:1;fill-rule:nonzero;stroke:none"
         id="path64" />
      <path
         d="m 1107,10212 c 0,-80.7 -65.44,-146.2 -146.172,-146.2 -80.719,0 -146.16,65.5 -146.16,146.2 0,80.7 65.441,146.2 146.16,146.2 80.732,0 146.172,-65.5 146.172,-146.2"
         style="fill:#222840;fill-opacity:1;fill-rule:nonzero;stroke:none"
         id="path66" />
      <path
         d="m 1107,8798.3 c 0,-80.8 -65.44,-146.2 -146.172,-146.2 -80.719,0 -146.16,65.4 -146.16,146.2 0,80.7 65.441,146.1 146.16,146.1 80.732,0 146.172,-65.4 146.172,-146.1"
         style="fill:#222840;fill-opacity:1;fill-rule:nonzero;stroke:none"
         id="path68" />
      <path
         d="m 1107,7384.6 c 0,-80.8 -65.44,-146.2 -146.172,-146.2 -80.719,0 -146.16,65.4 -146.16,146.2 0,80.7 65.441,146.1 146.16,146.1 80.732,0 146.172,-65.4 146.172,-146.1"
         style="fill:#222840;fill-opacity:1;fill-rule:nonzero;stroke:none"
         id="path70" />
      <path
         d="m 1107,5970.8 c 0,-80.7 -65.44,-146.1 -146.172,-146.1 -80.719,0 -146.16,65.4 -146.16,146.1 0,80.7 65.441,146.2 146.16,146.2 80.732,0 146.172,-65.5 146.172,-146.2"
         style="fill:#222840;fill-opacity:1;fill-rule:nonzero;stroke:none"
         id="path72" />
    </g>
  </g>
</svg>
