<?xml version="1.0" encoding="UTF-8" standalone="no"?>
<svg
   viewBox="0 0 500 500"
   version="1.1"
   id="svg7"
   sodipodi:docname="Boost your immune system-bro.svg"
   inkscape:version="1.2.2 (b0a84865, 2022-12-01)"
   xmlns:inkscape="http://www.inkscape.org/namespaces/inkscape"
   xmlns:sodipodi="http://sodipodi.sourceforge.net/DTD/sodipodi-0.dtd"
   xmlns="http://www.w3.org/2000/svg"
   xmlns:svg="http://www.w3.org/2000/svg">
  <defs
     id="defs11" />
  <sodipodi:namedview
     id="namedview9"
     pagecolor="#ffffff"
     bordercolor="#000000"
     borderopacity="0.25"
     inkscape:showpageshadow="2"
     inkscape:pageopacity="0.0"
     inkscape:pagecheckerboard="0"
     inkscape:deskcolor="#d1d1d1"
     showgrid="false"
     inkscape:zoom="0.472"
     inkscape:cx="26.483051"
     inkscape:cy="251.05932"
     inkscape:window-width="1440"
     inkscape:window-height="847"
     inkscape:window-x="0"
     inkscape:window-y="25"
     inkscape:window-maximized="1"
     inkscape:current-layer="svg7" />
  <g
     id="freepik--background-simple--inject-33"
     style="fill:#222840;fill-opacity:1">
    <path
       d="M333.83,54.54S259.33,28.05,186.2,70.23s-110,125.9-141.73,193S31,398.49,86.85,429.6s93.79-14.75,172.11-17,99.38,9,164.37-35.28,76.74-148.73,25.47-226S333.83,54.54,333.83,54.54Z"
       style="fill:#222840;fill-opacity:1"
       id="path2" />
    <path
       d="M333.83,54.54S259.33,28.05,186.2,70.23s-110,125.9-141.73,193S31,398.49,86.85,429.6s93.79-14.75,172.11-17,99.38,9,164.37-35.28,76.74-148.73,25.47-226S333.83,54.54,333.83,54.54Z"
       style="fill:#222840;opacity:0.7;fill-opacity:1"
       id="path4" />
  </g>
</svg>
