<?xml version="1.0" encoding="UTF-8" standalone="no"?>
<!-- Created with Inkscape (http://www.inkscape.org/) -->

<svg
   width="38.002823mm"
   height="37.767387mm"
   viewBox="0 0 38.002823 37.767387"
   version="1.1"
   id="svg422"
   inkscape:export-filename="bitmap.svg"
   inkscape:export-xdpi="96"
   inkscape:export-ydpi="96"
   xmlns:inkscape="http://www.inkscape.org/namespaces/inkscape"
   xmlns:sodipodi="http://sodipodi.sourceforge.net/DTD/sodipodi-0.dtd"
   xmlns="http://www.w3.org/2000/svg"
   xmlns:svg="http://www.w3.org/2000/svg">
  <sodipodi:namedview
     id="namedview424"
     pagecolor="#ffffff"
     bordercolor="#000000"
     borderopacity="0.25"
     inkscape:showpageshadow="2"
     inkscape:pageopacity="0.0"
     inkscape:pagecheckerboard="0"
     inkscape:deskcolor="#d1d1d1"
     inkscape:document-units="mm"
     showgrid="false" />
  <defs
     id="defs419" />
  <g
     inkscape:label="Layer 1"
     inkscape:groupmode="layer"
     id="layer1"
     transform="translate(-89.699335,-123.79586)">
    <path
       d="m 91.2267,125.47337 v 34.99626 c 0,0.60368 0.480645,1.09362 1.072834,1.09362 h 34.329796 c 0.59219,0 1.07283,-0.48994 1.07283,-1.09362 0,-0.60369 -0.48064,-1.09362 -1.07283,-1.09362 H 93.372327 c 0,0 0,-33.90264 0,-33.90264 0,-0.60369 -0.480604,-1.09362 -1.072793,-1.09362 -0.592189,0 -1.072834,0.48993 -1.072834,1.09362 z"
       id="path3822-9"
       style="clip-rule:evenodd;fill:#80e0f1;fill-opacity:1;fill-rule:evenodd;stroke-width:1.08317;stroke-linejoin:round;stroke-miterlimit:2" />
    <path
       d="m 97.663541,156.10383 v -1.09362 c 0,-0.60257 -0.480604,-1.09362 -1.072793,-1.09362 -0.592189,0 -1.072793,0.49105 -1.072793,1.09362 v 1.09362 c 0,0.60369 0.480604,1.09366 1.072793,1.09366 0.592189,0 1.072793,-0.48997 1.072793,-1.09366 z"
       id="path3824-3"
       style="clip-rule:evenodd;fill:#80e0f1;fill-opacity:1;fill-rule:evenodd;stroke-width:1.08317;stroke-linejoin:round;stroke-miterlimit:2" />
    <path
       d="m 99.809169,155.01021 v 1.09362 c 0,0.60369 0.480601,1.09366 1.072791,1.09366 0.59219,0 1.07284,-0.48997 1.07284,-1.09366 v -1.09362 c 0,-0.60257 -0.48065,-1.09362 -1.07284,-1.09362 -0.59219,0 -1.072791,0.49105 -1.072791,1.09362 z"
       id="path3826-7"
       style="clip-rule:evenodd;fill:#80e0f1;fill-opacity:1;fill-rule:evenodd;stroke-width:1.08317;stroke-linejoin:round;stroke-miterlimit:2" />
    <path
       d="m 104.10038,153.91659 v 2.18724 c 0,0.60369 0.48065,1.09366 1.07284,1.09366 0.59219,0 1.07279,-0.48997 1.07279,-1.09366 v -2.18724 c 0,-0.60261 -0.4806,-1.09366 -1.07279,-1.09366 -0.59219,0 -1.07284,0.49105 -1.07284,1.09366 z"
       id="path3828-5"
       style="clip-rule:evenodd;fill:#80e0f1;fill-opacity:1;fill-rule:evenodd;stroke-width:1.08317;stroke-linejoin:round;stroke-miterlimit:2" />
    <path
       d="m 108.39164,152.82293 v 3.2809 c 0,0.60369 0.4806,1.09366 1.07279,1.09366 0.59219,0 1.07279,-0.48997 1.07279,-1.09366 v -3.2809 c 0,-0.60257 -0.4806,-1.09362 -1.07279,-1.09362 -0.59219,0 -1.07279,0.49105 -1.07279,1.09362 z"
       id="path3830-7"
       style="clip-rule:evenodd;fill:#80e0f1;fill-opacity:1;fill-rule:evenodd;stroke-width:1.08317;stroke-linejoin:round;stroke-miterlimit:2" />
    <path
       d="m 112.68285,150.6357 v 5.46813 c 0,0.60369 0.4806,1.09366 1.07279,1.09366 0.59219,0 1.07284,-0.48997 1.07284,-1.09366 v -5.46813 c 0,-0.60262 -0.48065,-1.09366 -1.07284,-1.09366 -0.59219,0 -1.07279,0.49104 -1.07279,1.09366 z"
       id="path3832-2"
       style="clip-rule:evenodd;fill:#80e0f1;fill-opacity:1;fill-rule:evenodd;stroke-width:1.08317;stroke-linejoin:round;stroke-miterlimit:2" />
    <path
       d="m 116.97406,146.26114 v 9.84269 c 0,0.60369 0.48065,1.09366 1.07284,1.09366 0.59219,0 1.07279,-0.48997 1.07279,-1.09366 v -9.84269 c 0,-0.60257 -0.4806,-1.09362 -1.07279,-1.09362 -0.59219,0 -1.07284,0.49105 -1.07284,1.09362 z"
       id="path3834-9"
       style="clip-rule:evenodd;fill:#80e0f1;fill-opacity:1;fill-rule:evenodd;stroke-width:1.08317;stroke-linejoin:round;stroke-miterlimit:2" />
    <path
       d="m 121.26532,141.88662 v 14.21721 c 0,0.60369 0.4806,1.09366 1.07279,1.09366 0.59219,0 1.0728,-0.48997 1.0728,-1.09366 v -14.21721 c 0,-0.60257 -0.48061,-1.09362 -1.0728,-1.09362 -0.59219,0 -1.07279,0.49105 -1.07279,1.09362 z"
       id="path3836-7"
       style="clip-rule:evenodd;fill:#80e0f1;fill-opacity:1;fill-rule:evenodd;stroke-width:1.08317;stroke-linejoin:round;stroke-miterlimit:2" />
    <path
       d="m 125.55653,139.69934 v 16.40449 c 0,0.60369 0.48061,1.09366 1.0728,1.09366 0.59219,0 1.07283,-0.48997 1.07283,-1.09366 v -16.40449 c 0,-0.60257 -0.48064,-1.09362 -1.07283,-1.09362 -0.59219,0 -1.0728,0.49105 -1.0728,1.09362 z"
       id="path3838-5"
       style="clip-rule:evenodd;fill:#80e0f1;fill-opacity:1;fill-rule:evenodd;stroke-width:1.08317;stroke-linejoin:round;stroke-miterlimit:2" />
    <path
       d="m 121.84891,133.83969 -1.27662,-1.90402 7.12987,-0.99413 -3.49734,6.41196 -1.13828,-1.6973 c -3.08539,2.7319 -5.3694,5.66613 -7.80895,8.24381 -4.28907,4.53311 -9.01908,8.03821 -18.820231,7.82054 -0.59219,-0.0124 -1.062089,-0.51399 -1.049236,-1.11767 0.01216,-0.60369 0.504243,-1.08271 1.096432,-1.06957 8.970785,0.20006 13.302795,-3.00201 17.228195,-7.15126 2.53074,-2.67502 4.90704,-5.71643 8.13616,-8.54236 z"
       id="path3840-6"
       style="clip-rule:evenodd;fill:#80e0f1;fill-opacity:1;fill-rule:evenodd;stroke-width:1.08317;stroke-linejoin:round;stroke-miterlimit:2" />
    <path
       d="m 89.699334,124.88948 v 34.99626 c 0,0.60369 0.480604,1.09362 1.072793,1.09362 h 34.329833 c 0.59219,0 1.07279,-0.48993 1.07279,-1.09362 0,-0.60368 -0.4806,-1.09362 -1.07279,-1.09362 H 91.844961 c 0,0 0,-33.90264 0,-33.90264 0,-0.60369 -0.480644,-1.09362 -1.072834,-1.09362 -0.592189,0 -1.072793,0.48993 -1.072793,1.09362 z"
       id="path3822"
       style="clip-rule:evenodd;fill-rule:evenodd;stroke-width:1.08317;stroke-linejoin:round;stroke-miterlimit:2" />
    <path
       d="m 96.136175,155.51995 v -1.09362 c 0,-0.60261 -0.480604,-1.09362 -1.072793,-1.09362 -0.59219,0 -1.072834,0.49101 -1.072834,1.09362 v 1.09362 c 0,0.60368 0.480644,1.09366 1.072834,1.09366 0.592189,0 1.072793,-0.48998 1.072793,-1.09366 z"
       id="path3824"
       style="clip-rule:evenodd;fill-rule:evenodd;stroke-width:1.08317;stroke-linejoin:round;stroke-miterlimit:2" />
    <path
       d="m 98.281802,154.42633 v 1.09362 c 0,0.60368 0.480604,1.09366 1.072794,1.09366 0.592189,0 1.072794,-0.48998 1.072794,-1.09366 v -1.09362 c 0,-0.60261 -0.480605,-1.09362 -1.072794,-1.09362 -0.59219,0 -1.072794,0.49101 -1.072794,1.09362 z"
       id="path3826"
       style="clip-rule:evenodd;fill-rule:evenodd;stroke-width:1.08317;stroke-linejoin:round;stroke-miterlimit:2" />
    <path
       d="m 102.57302,153.33271 v 2.18724 c 0,0.60368 0.4806,1.09366 1.07279,1.09366 0.59219,0 1.07283,-0.48998 1.07283,-1.09366 v -2.18724 c 0,-0.60261 -0.48064,-1.09366 -1.07283,-1.09366 -0.59219,0 -1.07279,0.49105 -1.07279,1.09366 z"
       id="path3828"
       style="clip-rule:evenodd;fill-rule:evenodd;stroke-width:1.08317;stroke-linejoin:round;stroke-miterlimit:2" />
    <path
       d="m 106.86423,152.23905 v 3.2809 c 0,0.60368 0.48064,1.09366 1.07283,1.09366 0.59219,0 1.0728,-0.48998 1.0728,-1.09366 v -3.2809 c 0,-0.60257 -0.48061,-1.09362 -1.0728,-1.09362 -0.59219,0 -1.07283,0.49105 -1.07283,1.09362 z"
       id="path3830"
       style="clip-rule:evenodd;fill-rule:evenodd;stroke-width:1.08317;stroke-linejoin:round;stroke-miterlimit:2" />
    <path
       d="m 111.15548,150.05181 v 5.46814 c 0,0.60368 0.48061,1.09366 1.0728,1.09366 0.59219,0 1.07279,-0.48998 1.07279,-1.09366 v -5.46814 c 0,-0.60261 -0.4806,-1.09366 -1.07279,-1.09366 -0.59219,0 -1.0728,0.49105 -1.0728,1.09366 z"
       id="path3832"
       style="clip-rule:evenodd;fill-rule:evenodd;stroke-width:1.08317;stroke-linejoin:round;stroke-miterlimit:2" />
    <path
       d="m 115.4467,145.67725 v 9.8427 c 0,0.60368 0.4806,1.09366 1.07279,1.09366 0.59219,0 1.07284,-0.48998 1.07284,-1.09366 v -9.8427 c 0,-0.60257 -0.48065,-1.09362 -1.07284,-1.09362 -0.59219,0 -1.07279,0.49105 -1.07279,1.09362 z"
       id="path3834"
       style="clip-rule:evenodd;fill-rule:evenodd;stroke-width:1.08317;stroke-linejoin:round;stroke-miterlimit:2" />
    <path
       d="m 119.73791,141.30273 v 14.21722 c 0,0.60368 0.48065,1.09366 1.07284,1.09366 0.59219,0 1.07279,-0.48998 1.07279,-1.09366 v -14.21722 c 0,-0.60261 -0.4806,-1.09362 -1.07279,-1.09362 -0.59219,0 -1.07284,0.49101 -1.07284,1.09362 z"
       id="path3836"
       style="clip-rule:evenodd;fill-rule:evenodd;stroke-width:1.08317;stroke-linejoin:round;stroke-miterlimit:2" />
    <path
       d="m 124.02917,139.11545 v 16.4045 c 0,0.60368 0.4806,1.09366 1.07279,1.09366 0.59219,0 1.07279,-0.48998 1.07279,-1.09366 v -16.4045 c 0,-0.60257 -0.4806,-1.09361 -1.07279,-1.09361 -0.59219,0 -1.07279,0.49104 -1.07279,1.09361 z"
       id="path3838"
       style="clip-rule:evenodd;fill-rule:evenodd;stroke-width:1.08317;stroke-linejoin:round;stroke-miterlimit:2" />
    <path
       d="m 120.32155,133.2558 -1.27667,-1.90402 7.12987,-0.99412 -3.49734,6.41196 -1.13824,-1.69731 c -3.08538,2.7319 -5.3694,5.66609 -7.80895,8.24381 -4.2891,4.53312 -9.01912,8.03821 -18.820268,7.82055 -0.59219,-0.0124 -1.062089,-0.51399 -1.049195,-1.11768 0.01216,-0.60369 0.504202,-1.08271 1.096392,-1.06956 8.970831,0.20005 13.302831,-3.00202 17.228231,-7.15127 2.53074,-2.67502 4.907,-5.71643 8.13617,-8.54236 z"
       id="path3840"
       style="clip-rule:evenodd;fill-rule:evenodd;stroke-width:1.08317;stroke-linejoin:round;stroke-miterlimit:2" />
  </g>
</svg>
