<?xml version="1.0" ?><svg id="Layer_1" style="enable-background:new 0 0 128 128;" version="1.1" viewBox="0 0 128 128" xml:space="preserve" xmlns="http://www.w3.org/2000/svg" xmlns:xlink="http://www.w3.org/1999/xlink"><style type="text/css">
	.st0{fill:#382673;}
	.st1{fill:#473080;}
	.st2{fill:#007BC6;}
	.st3{fill:#D44A90;}
	.st4{fill:#A72973;}
	.st5{fill:#F15A9E;}
	.st6{opacity:0.4;fill:#0CAFE8;}
	.st7{opacity:0.5;fill:#382673;}
	.st8{fill:#0CAFE8;}
	.st9{fill:#0B90D3;}
	.st10{opacity:0.3;fill:none;stroke:#FFFFFF;stroke-width:2;stroke-linecap:round;stroke-linejoin:round;stroke-miterlimit:10;}
	.st11{fill:#8F58B2;}
	.st12{fill:#6E4CA0;}
	.st13{fill:#F375AD;}
	.st14{fill:#FFDE39;}
	.st15{fill:#FEC632;}
	.st16{fill:#F9A74E;}
	.st17{fill:#DA6A2D;}
	.st18{fill:#9EDD9A;}
	.st19{fill:#00C2A9;}
	.st20{fill:#00A58C;}
	.st21{fill:#037C68;}
	.st22{fill:#9AC0DB;}
	.st23{fill:#FFFFFF;}
	.st24{opacity:0.2;fill:#382673;}
	.st25{opacity:0.4;fill:#473080;}
	.st26{opacity:0.1;fill:#382673;}
	.st27{fill:none;stroke:#FFDE39;stroke-width:10;stroke-linecap:round;stroke-linejoin:round;stroke-miterlimit:10;}
	.st28{fill:none;stroke:#F9A74E;stroke-width:4;stroke-linecap:round;stroke-linejoin:round;stroke-miterlimit:10;}
	.st29{fill:none;stroke:#FEC632;stroke-width:4;stroke-linecap:round;stroke-linejoin:round;stroke-miterlimit:10;}
	.st30{fill:none;stroke:#00A58C;stroke-width:2;stroke-linecap:round;stroke-linejoin:round;stroke-miterlimit:10;}
	.st31{fill:none;stroke:#D44A90;stroke-width:3;stroke-linecap:round;stroke-linejoin:round;stroke-miterlimit:10;}
	.st32{fill:none;stroke:#007BC6;stroke-width:2.2439;stroke-miterlimit:10;}
	.st33{fill:none;stroke:#F15A9E;stroke-width:3;stroke-linecap:round;stroke-miterlimit:10;}
	.st34{opacity:0.2;fill:none;stroke:#382673;stroke-width:2;stroke-linecap:round;stroke-linejoin:round;stroke-miterlimit:10;}
	.st35{fill:none;stroke:#F15A9E;stroke-width:2;stroke-linecap:round;stroke-miterlimit:10;}
	.st36{fill:none;stroke:#F9A74E;stroke-width:2;stroke-linecap:round;stroke-linejoin:round;stroke-miterlimit:10;}
	.st37{fill:none;stroke:#FFFFFF;stroke-width:2;stroke-linecap:round;stroke-miterlimit:10;}
	.st38{opacity:0.4;fill:#382673;}
</style><circle class="st0" cx="64" cy="64" r="60"/><circle class="st1" cx="64" cy="64" r="50"/><polygon class="st3" points="68,20 81,20 77,27 81,34 68,34 "/><polygon class="st4" points="68,20 71,24 71,25 68,25 "/><rect class="st5" height="14" transform="matrix(-1 -1.224647e-16 1.224647e-16 -1 127 62)" width="15" x="56" y="24"/><path class="st15" d="M7.5,84.1c2.2,6.2,5.4,11.8,9.3,16.9h22.1L18,68L7.5,84.1z"/><polygon class="st16" points="18,68 30.1,101 38.8,101 "/><path class="st16" d="M115.6,94.6L92.8,58.5L65,101h46.2C112.8,99,114.3,96.9,115.6,94.6z"/><line class="st36" x1="56" x2="56" y1="48" y2="24"/><path class="st24" d="M92.8,58.5l15.6,42.5h2.8c1.6-2,3-4.1,4.4-6.4L92.8,58.5z"/><ellipse class="st19" cx="89" cy="103.5" rx="14" ry="9.5"/><polygon class="st14" points="56.2,44 18.9,101 92.1,101 "/><polygon class="st15" points="56.2,44 77.1,101 92.1,101 "/><ellipse class="st19" cx="40" cy="102.9" rx="12" ry="8.1"/><polygon class="st23" points="65.7,70 72.5,75.6 72.5,69.9 72.5,69.9 56.2,44 40.5,68 46.8,75 53.8,70 60.5,83.1 "/><polygon class="st24" points="72.5,75.6 72.5,69.9 56.2,44 65.7,70 "/><polygon class="st23" points="92,74 100.6,79.8 103.5,75.6 92.8,58.5 81.6,75.6 87,78 "/><polygon class="st24" points="100.6,79.8 103.5,75.6 92.8,58.5 "/><polygon class="st23" points="25.4,79.8 18,68 12.5,76.5 12.5,76.5 16.8,80.5 21.6,77.6 "/><polygon class="st24" points="21.6,77.6 25.4,79.8 18,68 "/><path class="st20" d="M111.2,101H16.8c11,14,28,23,47.2,23S100.2,115,111.2,101z"/></svg>