<?xml version="1.0" encoding="UTF-8" standalone="no"?>
<svg
   enable-background="new 0 0 48 48"
   height="46"
   id="Layer_1"
   version="1.1"
   viewBox="0 0 34 46"
   width="34"
   xml:space="preserve"
   xmlns="http://www.w3.org/2000/svg"
   xmlns:svg="http://www.w3.org/2000/svg"><defs
     id="defs3703" /><path
     clip-rule="evenodd"
     d="M 30,46 H 4 C 1.791,46 0,44.209 0,42 V 4 C 0,1.791 1.791,0 4,0 h 18.973 c 0.002,0 0.005,0 0.007,0 H 23 v 0 c 0.32,0 0.593,0.161 0.776,0.395 l 9.829,9.829 C 33.84,10.407 34,10.68 34,11 v 0 0.021 c 0,0.002 0,0.003 0,0.005 V 42 c 0,2.209 -1.791,4 -4,4 z M 24,3.381 V 10 h 6.619 z M 32,12 h -9 c -0.553,0 -1,-0.448 -1,-1 V 2 H 4 C 2.896,2 2,2.896 2,4 v 38 c 0,1.104 0.896,2 2,2 h 26 c 1.104,0 2,-0.896 2,-2 z M 26,38 H 8 C 7.447,38 7,37.553 7,37 7,36.448 7.447,36 8,36 h 18 c 0.553,0 1,0.448 1,1 0,0.553 -0.447,1 -1,1 z m 0,-8 H 8 C 7.447,30 7,29.553 7,29 7,28.448 7.447,28 8,28 h 18 c 0.553,0 1,0.448 1,1 0,0.553 -0.447,1 -1,1 z m 0,-8 H 8 C 7.447,22 7,21.553 7,21 7,20.448 7.447,20 8,20 h 18 c 0.553,0 1,0.448 1,1 0,0.553 -0.447,1 -1,1 z"
     fill-rule="evenodd"
     id="path3698" /><path
     style="opacity:0.72;fill:#80e0f1;fill-opacity:1;stroke:#80e0f1;stroke-width:0;stroke-linejoin:bevel;stroke-dasharray:none;stroke-opacity:1"
     d="M 4.908534,44.450656 C 4.648219,44.387976 4.301822,44.215956 4.138764,44.06839 3.405534,43.404826 3.440248,44.424646 3.440824,23.564121 3.44135,4.5305342 3.447524,4.0955132 3.721595,3.6459552 4.351226,2.6133302 3.757875,2.6719562 14.040417,2.6263962 l 9.2468,-0.04097 v 4.725952 4.7259518 l 0.33286,0.312706 c 0.32752,0.307691 0.4071,0.312706 4.96173,0.312706 h 4.62887 l -5.7e-4,15.208788 c -5.8e-4,14.821227 -0.008,15.2205 -0.28077,15.668384 -0.15413,0.252777 -0.45842,0.576368 -0.6762,0.719092 -0.37374,0.244933 -1.13887,0.26079 -13.63365,0.282556 -7.28073,0.01268 -13.450676,-0.02823 -13.71099,-0.09091 z m 22.905643,-5.925272 c 0.61886,-0.281972 0.73054,-1.279624 0.19446,-1.737118 -0.27433,-0.234115 -0.95021,-0.251683 -9.68315,-0.251683 -8.732952,0 -9.408823,0.01757 -9.683154,0.251683 -0.517089,0.441286 -0.428456,1.448896 0.15206,1.728669 0.479148,0.230917 18.513934,0.238931 19.019784,0.0085 z m 0.19446,-8.137034 c 0.53608,-0.457495 0.4244,-1.455147 -0.19446,-1.737118 -0.52768,-0.240427 -18.449704,-0.240427 -18.977385,0 -0.618861,0.281971 -0.730541,1.279623 -0.194459,1.737118 0.274331,0.234115 0.950202,0.251682 9.683154,0.251682 8.73294,0 9.40882,-0.01757 9.68315,-0.251682 z m 0.0428,-8.044031 c 0.3779,-0.377966 0.39757,-1.103947 0.0406,-1.498388 -0.23812,-0.263122 -0.59778,-0.273182 -9.76656,-0.273182 -9.168788,0 -9.528447,0.01007 -9.766568,0.273182 -0.493969,0.545829 -0.276618,1.465364 0.41338,1.748865 0.160946,0.06613 4.449008,0.107428 9.529018,0.09178 l 9.2364,-0.02846 z"
     id="path5200" /></svg>
