<?xml version="1.0" encoding="UTF-8" standalone="no"?>
<!-- Created with Inkscape (http://www.inkscape.org/) -->

<svg
   width="47.767754mm"
   height="47.767776mm"
   viewBox="0 0 47.767754 47.767776"
   version="1.1"
   id="svg5431"
   xmlns:inkscape="http://www.inkscape.org/namespaces/inkscape"
   xmlns:sodipodi="http://sodipodi.sourceforge.net/DTD/sodipodi-0.dtd"
   xmlns="http://www.w3.org/2000/svg"
   xmlns:svg="http://www.w3.org/2000/svg">
  <sodipodi:namedview
     id="namedview5433"
     pagecolor="#ffffff"
     bordercolor="#000000"
     borderopacity="0.25"
     inkscape:showpageshadow="2"
     inkscape:pageopacity="0.0"
     inkscape:pagecheckerboard="0"
     inkscape:deskcolor="#d1d1d1"
     inkscape:document-units="mm"
     showgrid="false" />
  <defs
     id="defs5428" />
  <g
     inkscape:label="Layer 1"
     inkscape:groupmode="layer"
     id="layer1"
     transform="translate(-96.249369,-110.93231)">
    <circle
       class="st0"
       cx="120.13325"
       cy="134.81619"
       id="circle4"
       style="fill:#382673;stroke-width:0.398064"
       r="23.883883" />
    <circle
       class="st1"
       cx="120.13325"
       cy="134.81619"
       id="circle6"
       style="fill:#473080;stroke-width:0.398064"
       r="19.903234" />
    <path
       class="st24"
       d="m 131.5975,132.62683 6.20981,16.91777 h 1.11459 c 0.6369,-0.79614 1.1942,-1.63208 1.75148,-2.54763 z"
       id="path22"
       style="opacity:0.2;fill:#382673;stroke-width:0.398064" />
    <polygon
       class="st24"
       points="92.8,58.5 100.6,79.8 103.5,75.6 "
       id="polygon38"
       style="opacity:0.2;fill:#382673"
       transform="matrix(0.39806471,0,0,0.39806471,94.657104,109.34006)" />
    <path
       class="st20"
       d="m 138.9219,149.5446 h -37.57731 c 4.37872,5.57289 11.14581,9.15548 18.78865,9.15548 7.64284,0 14.40995,-3.58259 18.78866,-9.15548 z"
       id="path44"
       style="fill:#00a58c;stroke-width:0.398064" />
    <g
       id="g616"
       transform="matrix(0.39806471,0,0,0.39806471,107.39518,119.7707)">
      <g
         id="g538">
        <path
           d="M 43.314,41.929 39.071,37.686 36.74,39.085 C 36.389,38.917 36.029,38.767 35.659,38.637 L 35,36 h -6 l -0.659,2.637 c -0.37,0.131 -0.73,0.281 -1.081,0.448 l -2.331,-1.399 -4.243,4.243 1.399,2.331 c -0.168,0.351 -0.318,0.711 -0.448,1.081 L 19,46 v 6 l 2.637,0.659 c 0.131,0.37 0.281,0.73 0.448,1.081 l -1.399,2.331 4.243,4.243 2.331,-1.399 c 0.351,0.168 0.711,0.318 1.081,0.448 L 29,62 h 6 l 0.659,-2.637 c 0.37,-0.131 0.73,-0.281 1.081,-0.448 l 2.331,1.399 4.243,-4.243 -1.399,-2.331 c 0.168,-0.351 0.318,-0.711 0.448,-1.081 L 45,52 v -6 l -2.637,-0.659 c -0.131,-0.37 -0.281,-0.73 -0.448,-1.081 z"
           style="fill:#ffcb57"
           id="path536" />
      </g>
      <g
         id="g542">
        <rect
           height="5"
           style="fill:#e56565"
           width="2"
           x="40"
           y="16"
           id="rect540" />
      </g>
      <g
         id="g546">
        <polygon
           points="51,21.586 51,9 53,9 53,22.414 49.707,25.707 48.293,24.293 "
           style="fill:#e56565"
           id="polygon544" />
      </g>
      <g
         id="g550">
        <polygon
           points="59,27.586 59,17 61,17 61,28.414 57.707,31.707 56.293,30.293 "
           style="fill:#e56565"
           id="polygon548" />
      </g>
      <g
         id="g554">
        <path
           d="m 41,14 c -1.654,0 -3,-1.346 -3,-3 0,-1.654 1.346,-3 3,-3 1.654,0 3,1.346 3,3 0,1.654 -1.346,3 -3,3 z m 0,-4 c -0.552,0 -1,0.448 -1,1 0,0.552 0.448,1 1,1 0.552,0 1,-0.448 1,-1 0,-0.552 -0.448,-1 -1,-1 z"
           style="fill:#e56565"
           id="path552" />
      </g>
      <g
         id="g558">
        <rect
           height="11"
           style="fill:#e56565"
           width="2"
           x="31"
           y="9"
           id="rect556" />
      </g>
      <g
         id="g562">
        <path
           d="m 32,7 c -1.654,0 -3,-1.346 -3,-3 0,-1.654 1.346,-3 3,-3 1.654,0 3,1.346 3,3 0,1.654 -1.346,3 -3,3 z m 0,-4 c -0.552,0 -1,0.448 -1,1 0,0.552 0.448,1 1,1 0.552,0 1,-0.448 1,-1 0,-0.552 -0.448,-1 -1,-1 z"
           style="fill:#e56565"
           id="path560" />
      </g>
      <g
         id="g566">
        <path
           d="m 52,7 c -1.654,0 -3,-1.346 -3,-3 0,-1.654 1.346,-3 3,-3 1.654,0 3,1.346 3,3 0,1.654 -1.346,3 -3,3 z m 0,-4 c -0.552,0 -1,0.448 -1,1 0,0.552 0.448,1 1,1 0.552,0 1,-0.448 1,-1 0,-0.552 -0.448,-1 -1,-1 z"
           style="fill:#e56565"
           id="path564" />
      </g>
      <g
         id="g570">
        <path
           d="m 60,15 c -1.654,0 -3,-1.346 -3,-3 0,-1.654 1.346,-3 3,-3 1.654,0 3,1.346 3,3 0,1.654 -1.346,3 -3,3 z m 0,-4 c -0.552,0 -1,0.448 -1,1 0,0.552 0.448,1 1,1 0.552,0 1,-0.448 1,-1 0,-0.552 -0.448,-1 -1,-1 z"
           style="fill:#e56565"
           id="path568" />
      </g>
      <g
         id="g574">
        <rect
           height="6"
           style="fill:#e56565"
           width="2"
           x="22"
           y="16"
           id="rect572" />
      </g>
      <g
         id="g578">
        <polygon
           points="11,9 13,9 13,21.586 15.707,24.293 14.293,25.707 11,22.414 "
           style="fill:#e56565"
           id="polygon576" />
      </g>
      <g
         id="g582">
        <polygon
           points="3,17 5,17 5,27.586 9.707,32.293 8.293,33.707 3,28.414 "
           style="fill:#e56565"
           id="polygon580" />
      </g>
      <g
         id="g586">
        <path
           d="m 23,14 c -1.654,0 -3,-1.346 -3,-3 0,-1.654 1.346,-3 3,-3 1.654,0 3,1.346 3,3 0,1.654 -1.346,3 -3,3 z m 0,-4 c -0.552,0 -1,0.448 -1,1 0,0.552 0.448,1 1,1 0.552,0 1,-0.448 1,-1 0,-0.552 -0.448,-1 -1,-1 z"
           style="fill:#e56565"
           id="path584" />
      </g>
      <g
         id="g590">
        <path
           d="M 12,7 C 10.346,7 9,5.654 9,4 9,2.346 10.346,1 12,1 c 1.654,0 3,1.346 3,3 0,1.654 -1.346,3 -3,3 z m 0,-4 c -0.552,0 -1,0.448 -1,1 0,0.552 0.448,1 1,1 0.552,0 1,-0.448 1,-1 0,-0.552 -0.448,-1 -1,-1 z"
           style="fill:#e56565"
           id="path588" />
      </g>
      <g
         id="g594">
        <path
           d="M 4,15 C 2.346,15 1,13.654 1,12 1,10.346 2.346,9 4,9 c 1.654,0 3,1.346 3,3 0,1.654 -1.346,3 -3,3 z m 0,-4 c -0.552,0 -1,0.448 -1,1 0,0.552 0.448,1 1,1 0.552,0 1,-0.448 1,-1 0,-0.552 -0.448,-1 -1,-1 z"
           style="fill:#e56565"
           id="path592" />
      </g>
      <g
         id="g614"
         style="fill:#ffffff;fill-opacity:1">
        <path
           d="m 28,49 c 0,2.206 1.794,4 4,4 2.206,0 4,-1.794 4,-4 0,-2.206 -1.794,-4 -4,-4 -2.206,0 -4,1.794 -4,4 z m 6,0 c 0,1.103 -0.897,2 -2,2 -1.103,0 -2,-0.897 -2,-2 0,-1.103 0.897,-2 2,-2 1.103,0 2,0.897 2,2 z"
           style="fill:#ffffff;fill-opacity:1"
           id="path596" />
        <path
           d="m 42.817,43.829 -1.805,0.861 c 0.152,0.32 0.289,0.647 0.408,0.983 l 0.179,0.507 2.4,0.601 v 4.438 l -2.4,0.601 -0.179,0.507 c -0.119,0.336 -0.255,0.662 -0.407,0.981 l -0.232,0.484 1.273,2.124 -3.139,3.139 -2.122,-1.273 -0.484,0.231 c -0.32,0.152 -0.647,0.289 -0.983,0.408 L 34.819,58.6 34.219,61 H 29.781 L 29.18,58.6 28.673,58.421 C 28.337,58.302 28.01,58.165 27.69,58.013 l -0.484,-0.231 -2.122,1.273 -3.69,-3.69 -1.414,1.414 4.794,4.794 2.553,-1.531 c 0.057,0.024 0.114,0.048 0.171,0.071 L 28.219,63 h 7.562 l 0.722,-2.888 c 0.057,-0.023 0.114,-0.047 0.171,-0.071 l 2.553,1.531 5.346,-5.346 -1.53,-2.553 c 0.023,-0.058 0.047,-0.114 0.07,-0.171 L 46,52.781 v -7.562 l -2.888,-0.722 c -0.091,-0.226 -0.19,-0.449 -0.295,-0.668 z"
           style="fill:#ffffff;fill-opacity:1"
           id="path598" />
        <path
           d="m 18,45.219 v 7.562 l 2.888,0.722 c 0.092,0.226 0.19,0.449 0.296,0.668 l 1.803,-0.863 C 22.835,52.989 22.699,52.662 22.58,52.327 L 22.4,51.819 20,51.219 v -4.438 l 2.4,-0.601 0.179,-0.507 c 0.119,-0.336 0.256,-0.663 0.408,-0.983 l 0.231,-0.484 -1.273,-2.122 3.139,-3.139 2.122,1.273 0.484,-0.231 c 0.32,-0.152 0.647,-0.289 0.983,-0.408 L 29.18,39.4 29.781,37 h 4.438 l 0.601,2.4 0.507,0.179 c 0.336,0.119 0.663,0.256 0.983,0.408 l 0.484,0.231 2.122,-1.273 3.69,3.69 1.414,-1.414 -4.794,-4.794 -2.553,1.531 C 36.616,37.934 36.559,37.91 36.502,37.887 L 35.781,35 h -7.562 l -0.722,2.888 c -0.057,0.023 -0.114,0.047 -0.171,0.071 l -2.553,-1.531 -5.346,5.346 1.531,2.553 c -0.024,0.057 -0.048,0.114 -0.071,0.171 z"
           style="fill:#ffffff;fill-opacity:1"
           id="path600" />
        <path
           d="M 58.994,39.079 C 58.995,39.053 59,39.026 59,39 59,34.654 55.515,31.114 51.194,31.01 50.392,29.623 49.053,28.589 47.462,28.188 46.299,25.114 43.323,23 40,23 38.765,23 37.548,23.289 36.441,23.842 34.877,22.649 32.971,22 31,22 28.695,22 26.489,22.892 24.825,24.461 23.935,24.166 22.987,24 22,24 17.556,24 13.784,27.26 13.113,31.622 11.281,32.448 9.863,34.04 9.284,36.037 4.656,36.403 1,40.279 1,45 c 0,4.963 4.037,9 9,9 h 6 v -2 h -6 c -3.859,0 -7,-3.141 -7,-7 0,-3.859 3.141,-7 7,-7 2.137,0 4.129,0.958 5.467,2.627 l 1.561,-1.25 C 15.601,37.595 13.591,36.457 11.379,36.118 12.128,34.265 13.922,33 16,33 c 1.778,0 3.438,0.958 4.331,2.499 l 1.73,-1.002 C 20.812,32.34 18.489,31 16,31 15.758,31 15.52,31.015 15.284,31.039 16.139,28.103 18.852,26 22,26 c 3.859,0 7,3.141 7,7 h 2 C 31,29.804 29.321,26.999 26.803,25.402 28.005,24.501 29.475,24 31,24 c 1.718,0 3.374,0.637 4.664,1.792 l 0.557,0.498 0.636,-0.393 C 37.808,25.311 38.895,25 40,25 c 2.179,0 4.159,1.215 5.208,3.058 C 42.273,28.448 40,30.96 40,34 h 2 c 0,-2.206 1.794,-4 4,-4 2.206,0 4,1.794 4,4 0,2.206 -1.794,4 -4,4 v 2 c 3.309,0 6,-2.691 6,-6 0,-0.314 -0.032,-0.62 -0.078,-0.922 2.627,0.408 4.693,2.521 5.026,5.172 C 56.323,38.093 55.673,38 55,38 c -2.831,0 -5.395,1.449 -6.856,3.877 l 1.713,1.031 C 50.953,41.087 52.876,40 55,40 c 3.309,0 6,2.691 6,6 0,3.309 -2.691,6 -6,6 h -7 v 2 h 7 c 4.411,0 8,-3.589 8,-8 0,-2.956 -1.615,-5.536 -4.006,-6.921 z"
           style="fill:#ffffff;fill-opacity:1"
           id="path602" />
        <rect
           height="2"
           style="fill:#ffffff;fill-opacity:1"
           width="2"
           x="54"
           y="46"
           id="rect604" />
        <path
           d="m 31,41 v 0.069 c -3.94,0.495 -7,3.859 -7,7.931 0,4.411 3.589,8 8,8 4.072,0 7.436,-3.06 7.931,-7 H 40 V 48 H 39.931 C 39.478,44.388 36.612,41.523 33,41.069 V 41 Z m 7,8 c 0,3.309 -2.691,6 -6,6 -3.309,0 -6,-2.691 -6,-6 0,-3.309 2.691,-6 6,-6 3.309,0 6,2.691 6,6 z"
           style="fill:#ffffff;fill-opacity:1"
           id="path606" />
        <rect
           height="2"
           style="fill:#ffffff;fill-opacity:1"
           width="2"
           x="9"
           y="47"
           id="rect608" />
        <rect
           height="2"
           style="fill:#ffffff;fill-opacity:1"
           width="2"
           x="24"
           y="30"
           id="rect610" />
        <rect
           height="2"
           style="fill:#ffffff;fill-opacity:1"
           width="2"
           x="36"
           y="29"
           id="rect612" />
      </g>
    </g>
  </g>
</svg>
