<?xml version="1.0" encoding="UTF-8" standalone="no"?>
<svg
   height="455.46637"
   viewBox="0 0 450.47122 455.46637"
   width="450.47122"
   version="1.1"
   id="svg8"
   xmlns="http://www.w3.org/2000/svg"
   xmlns:svg="http://www.w3.org/2000/svg">
  <defs
     id="defs12" />
  <title
     id="title2" />
  <path
     d="m 448.2799,45.448412 c -0.3472,-1.67555 -1.6344,-2.99781 -3.3,-3.39 -54.38,-13.3 -180,34.089997 -248.13,102.169998 -12.1423,12.04257 -23.214,25.11852 -33.09,39.08 -21,-1.9 -41.99997,-0.3 -59.87997,7.5 -50.489993,22.2 -65.179993,80.18 -69.279993,105.07 -0.95238,5.84716 3.90662,11.00365 9.8,10.4 l 81.069993,-8.9 c 0.0561,6.11471 0.42323,12.2226 1.1,18.3 0.42309,4.20057 2.29729,8.12225 5.3,11.09 l 31.38997,31.39 c 2.9703,3.00479 6.8959,4.87916 11.1,5.3 6.0409,0.67371 12.112,1.04085 18.19,1.1 l -8.89,81 c -0.5949,5.88459 4.5511,10.73347 10.39,9.79 24.9,-4 83,-18.69 105.07,-69.17 7.8,-17.9 9.4,-38.79 7.6,-59.69 14.0027,-9.86688 27.1159,-20.93903 39.19,-33.09 68.38,-68 115.47,-190.86 102.37,-247.949998 z"
     style="fill:#80e0f1;fill-opacity:1;stroke:#000000;stroke-width:0;stroke-linecap:round;stroke-linejoin:round;stroke-dasharray:none"
     id="path4-9" />
  <path
     d="m 96.109934,343.63841 a 45.06,45.06 0 0 0 -26.35,12.84 c -17.619997,17.68 -19.289997,83.16 -19.289997,83.16 0,0 65.519993,-1.67 83.149993,-19.31 a 44.73,44.73 0 0 0 12.84997,-26.37"
     style="fill:#80e0f1;fill-opacity:1;stroke:#000000;stroke-width:0;stroke-linecap:round;stroke-linejoin:round;stroke-dasharray:none"
     id="path6-3" />
  <path
     d="m 429.78345,21.872759 a 4.4,4.4 0 0 0 -3.3,-3.39 c -54.38,-13.2999996 -180,34.09 -248.13,102.170001 a 294.9,294.9 0 0 0 -33.09,39.08 c -21,-1.9 -42,-0.3 -59.879996,7.5 -50.49,22.2 -65.18,80.18 -69.28,105.07 a 9,9 0 0 0 9.8,10.4 l 81.069996,-8.9 a 180.29,180.29 0 0 0 1.1,18.3 18.15,18.15 0 0 0 5.3,11.09 l 31.39,31.39 a 18.15,18.15 0 0 0 11.1,5.3 179.91,179.91 0 0 0 18.19,1.1 l -8.89,81 a 9,9 0 0 0 10.39,9.79 c 24.9,-4 83,-18.69 105.07,-69.17 7.8,-17.9 9.4,-38.79 7.6,-59.69 a 293.91,293.91 0 0 0 39.19,-33.09 c 68.38,-68 115.47,-190.860001 102.37,-247.950001 z m -163.15,159.860001 a 42.7,42.7 0 1 1 60.38,0 42.65,42.65 0 0 1 -60.38,0 z"
     style="fill:none;stroke:#000000;stroke-width:32px;stroke-linecap:round;stroke-linejoin:round"
     id="path4" />
  <path
     d="m 77.613454,320.06276 a 45.06,45.06 0 0 0 -26.35,12.84 c -17.62,17.68 -19.29,83.16 -19.29,83.16 0,0 65.52,-1.67 83.149996,-19.31 a 44.73,44.73 0 0 0 12.85,-26.37"
     style="fill:none;stroke:#000000;stroke-width:32px;stroke-linecap:round;stroke-linejoin:round"
     id="path6" />
</svg>
