<?xml version="1.0" encoding="UTF-8" standalone="no"?>
<!-- Created with Inkscape (http://www.inkscape.org/) -->

<svg
   width="47.767754mm"
   height="47.767776mm"
   viewBox="0 0 47.767754 47.767776"
   version="1.1"
   id="svg5431"
   xmlns:inkscape="http://www.inkscape.org/namespaces/inkscape"
   xmlns:sodipodi="http://sodipodi.sourceforge.net/DTD/sodipodi-0.dtd"
   xmlns="http://www.w3.org/2000/svg"
   xmlns:svg="http://www.w3.org/2000/svg">
  <sodipodi:namedview
     id="namedview5433"
     pagecolor="#ffffff"
     bordercolor="#000000"
     borderopacity="0.25"
     inkscape:showpageshadow="2"
     inkscape:pageopacity="0.0"
     inkscape:pagecheckerboard="0"
     inkscape:deskcolor="#d1d1d1"
     inkscape:document-units="mm"
     showgrid="false" />
  <defs
     id="defs5428" />
  <g
     inkscape:label="Layer 1"
     inkscape:groupmode="layer"
     id="layer1"
     transform="translate(-96.249369,-110.93231)">
    <circle
       class="st0"
       cx="120.13325"
       cy="134.81619"
       id="circle4"
       style="fill:#382673;stroke-width:0.398064"
       r="23.883883" />
    <circle
       class="st1"
       cx="120.13325"
       cy="134.81619"
       id="circle6"
       style="fill:#473080;stroke-width:0.398064"
       r="19.903234" />
    <path
       class="st24"
       d="m 131.5975,132.62683 6.20981,16.91777 h 1.11459 c 0.6369,-0.79614 1.1942,-1.63208 1.75148,-2.54763 z"
       id="path22"
       style="opacity:0.2;fill:#382673;stroke-width:0.398064" />
    <polygon
       class="st24"
       points="92.8,58.5 100.6,79.8 103.5,75.6 "
       id="polygon38"
       style="opacity:0.2;fill:#382673"
       transform="matrix(0.39806471,0,0,0.39806471,94.657104,109.34006)" />
    <path
       class="st20"
       d="m 138.9219,149.5446 h -37.57731 c 4.37872,5.57289 11.14581,9.15548 18.78865,9.15548 7.64284,0 14.40995,-3.58259 18.78866,-9.15548 z"
       id="path44"
       style="fill:#00a58c;stroke-width:0.398064" />
    <g
       id="g6587"
       transform="matrix(0.0461323,0,0,0.04636734,108.2958,122.47444)">
      <g
         id="g6583">
        <g
           id="g6531">
          <g
             id="g6485">
            <g
               id="g6453">
              <g
                 id="g6421">
                <g
                   id="g6409">
                  <rect
                     class="st0"
                     height="128.8"
                     width="30.5"
                     x="320"
                     y="307.79999"
                     id="rect6407"
                     style="fill:#d3d8d9" />
                </g>
                <g
                   id="g6419">
                  <g
                     id="g6413">
                    <polygon
                       class="st0"
                       points="455.2,436.6 395.2,307.8 425.7,307.8 485.6,436.6 "
                       id="polygon6411"
                       style="fill:#d3d8d9" />
                  </g>
                  <g
                     id="g6417">
                    <polygon
                       class="st0"
                       points="215.4,436.6 184.9,436.6 244.9,307.8 275.3,307.8 "
                       id="polygon6415"
                       style="fill:#d3d8d9" />
                  </g>
                </g>
              </g>
              <g
                 id="g6445">
                <g
                   id="g6425">
                  <rect
                     class="st1"
                     height="21.799999"
                     width="30.5"
                     x="320"
                     y="307.79999"
                     id="rect6423"
                     style="fill:#ededed" />
                </g>
                <g
                   id="g6443">
                  <g
                     id="g6429">
                    <polygon
                       class="st1"
                       points="405.4,329.6 395.2,307.8 425.7,307.8 435.8,329.6 "
                       id="polygon6427"
                       style="fill:#ededed" />
                  </g>
                  <g
                     id="g6433">
                    <polygon
                       class="st2"
                       points="455.1,436.6 445,414.8 475.5,414.8 485.6,436.6 "
                       id="polygon6431"
                       style="fill:#a8b1b3" />
                  </g>
                  <g
                     id="g6437">
                    <polygon
                       class="st2"
                       points="215.4,436.6 225.6,414.8 195.1,414.8 184.9,436.6 "
                       id="polygon6435"
                       style="fill:#a8b1b3" />
                  </g>
                  <g
                     id="g6441">
                    <polygon
                       class="st1"
                       points="265.2,329.6 234.7,329.6 244.9,307.8 275.3,307.8 "
                       id="polygon6439"
                       style="fill:#ededed" />
                  </g>
                </g>
              </g>
              <g
                 id="g6451">
                <g
                   id="g6449">
                  <rect
                     class="st2"
                     height="21.799999"
                     width="30.5"
                     x="320"
                     y="414.79999"
                     id="rect6447"
                     style="fill:#a8b1b3" />
                </g>
              </g>
            </g>
            <rect
               class="st3"
               height="201.8"
               width="313.29999"
               x="178.60001"
               y="71.699997"
               id="rect6455"
               style="fill:#ffffff" />
            <g
               id="g6469">
              <g
                 id="g6459">
                <path
                   class="st4"
                   d="m 512,43.4 v 22.3 c 0,3.3 -2.7,6 -6,6 H 164.5 c -3.3,0 -6,-2.7 -6,-6 V 43.4 c 0,-3.3 2.7,-6 6,-6 H 506 c 3.3,0 6,2.7 6,6 z"
                   id="path6457"
                   style="fill:#fb8a8a" />
              </g>
              <g
                 id="g6463">
                <path
                   class="st5"
                   d="m 512,43.4 v 10.9 c 0,-3.3 -2.7,-6 -6,-6 H 164.5 c -3.3,0 -6,2.7 -6,6 V 43.4 c 0,-3.3 2.7,-6 6,-6 H 506 c 3.3,0 6,2.7 6,6 z"
                   id="path6461"
                   style="fill:#fcb1b1" />
              </g>
              <g
                 id="g6467">
                <path
                   class="st6"
                   d="m 512,54.8 v 10.9 c 0,3.3 -2.7,6 -6,6 H 164.5 c -3.3,0 -6,-2.7 -6,-6 V 54.8 c 0,3.3 2.7,6 6,6 H 506 c 3.3,0 6,-2.7 6,-6 z"
                   id="path6465"
                   style="fill:#f96363" />
              </g>
            </g>
            <g
               id="g6483">
              <g
                 id="g6473">
                <path
                   class="st4"
                   d="m 512,279.5 v 22.3 c 0,3.3 -2.7,6 -6,6 H 164.5 c -3.3,0 -6,-2.7 -6,-6 v -22.3 c 0,-3.3 2.7,-6 6,-6 H 506 c 3.3,0 6,2.7 6,6 z"
                   id="path6471"
                   style="fill:#fb8a8a" />
              </g>
              <g
                 id="g6477">
                <path
                   class="st5"
                   d="m 512,279.5 v 10.9 c 0,-3.3 -2.7,-6 -6,-6 H 164.5 c -3.3,0 -6,2.7 -6,6 v -10.9 c 0,-3.3 2.7,-6 6,-6 H 506 c 3.3,0 6,2.7 6,6 z"
                   id="path6475"
                   style="fill:#fcb1b1" />
              </g>
              <g
                 id="g6481">
                <path
                   class="st6"
                   d="m 512,290.9 v 10.9 c 0,3.3 -2.7,6 -6,6 H 164.5 c -3.3,0 -6,-2.7 -6,-6 v -10.9 c 0,3.3 2.7,6 6,6 H 506 c 3.3,-0.1 6,-2.7 6,-6 z"
                   id="path6479"
                   style="fill:#f96363" />
              </g>
            </g>
          </g>
          <g
             id="g6529">
            <g
               id="g6507">
              <g
                 id="g6489">
                <path
                   class="st7"
                   d="m 0,241.1 v 81.6 c 0,14.2 11.5,25.7 25.7,25.7 H 134 V 229.7 h 90 c 5.9,0 11.3,-2.4 15.2,-6.3 3.9,-3.9 6.3,-9.3 6.3,-15.2 0,-11.9 -9.6,-21.5 -21.5,-21.5 H 54.4 C 24.3,186.7 0,211.1 0,241.1 Z"
                   id="path6487"
                   style="fill:#bd90be" />
              </g>
              <g
                 id="g6493">
                <path
                   class="st8"
                   d="M 0,241.1 V 262 C 0,232 24.3,207.6 54.4,207.6 H 224 c 8.1,0 15.1,4.5 18.7,11.1 1.8,-3.1 2.8,-6.7 2.8,-10.5 0,-11.9 -9.6,-21.5 -21.5,-21.5 H 54.4 C 24.4,186.7 0,211.1 0,241.1 Z"
                   id="path6491"
                   style="fill:#d3b5d3" />
              </g>
              <g
                 id="g6497">
                <path
                   class="st9"
                   d="m 0,301.7 v 21 c 0,14.2 11.5,25.7 25.7,25.7 h 10.5 v -21 H 25.7 C 11.5,327.4 0,315.9 0,301.7 Z"
                   id="path6495"
                   style="fill:#a76ba8" />
              </g>
              <g
                 id="g6501">
                <path
                   class="st1"
                   d="m 36.2,345.6 v 105.5 c 0,13 10.5,23.5 23.5,23.5 h 50.8 c 13,0 23.5,-10.5 23.5,-23.5 V 345.6 Z"
                   id="path6499"
                   style="fill:#ededed" />
              </g>
              <g
                 id="g6505">
                <path
                   class="st0"
                   d="M 36.2,429.6 V 451 c 0,13 10.5,23.5 23.5,23.5 h 50.8 c 13,0 23.5,-10.5 23.5,-23.5 v -21.5 c 0,13 -10.5,23.5 -23.5,23.5 H 59.7 c -13,0.1 -23.5,-10.4 -23.5,-23.4 z"
                   id="path6503"
                   style="fill:#d3d8d9" />
              </g>
            </g>
            <polygon
               class="st3"
               points="48.6,187 85.1,262.1 121.6,187 "
               id="polygon6509"
               style="fill:#ffffff" />
            <g
               id="g6513">
              <path
                 class="st10"
                 d="m 46.7,95.3 v 65.2 c 0,19.7 16,35.7 35.7,35.7 19.7,0 35.7,-16 35.7,-35.7 V 95.3 Z"
                 id="path6511"
                 style="fill:#fee8b3" />
            </g>
            <g
               id="g6517">
              <rect
                 class="st11"
                 height="43.099998"
                 width="71.300003"
                 x="46.700001"
                 y="95.300003"
                 id="rect6515"
                 style="fill:#fff4d9" />
            </g>
            <g
               id="g6527">
              <g
                 id="g6521">
                <path
                   class="st12"
                   d="M 147.6,79 118,123.2 H 46.7 V 95.7 C 46.7,86.5 54.2,79 63.4,79 Z"
                   id="path6519"
                   style="fill:#516468" />
              </g>
              <g
                 id="g6525">
                <path
                   class="st13"
                   d="m 147.6,79 -9.4,14 H 63.4 c -9.2,0 -16.7,7.6 -16.7,16.8 V 95.7 C 46.7,86.5 54.2,79 63.4,79 Z"
                   id="path6523"
                   style="fill:#7c8b8d" />
              </g>
            </g>
          </g>
        </g>
        <g
           id="g6581">
          <g
             id="g6535">
            <rect
               class="st14"
               height="154.60001"
               width="38"
               x="423.79999"
               y="95.300003"
               id="rect6533"
               style="fill:#7ad1f9" />
          </g>
          <g
             id="g6539">
            <rect
               class="st15"
               height="124.1"
               width="38"
               x="349.70001"
               y="125.8"
               id="rect6537"
               style="fill:#7bde9e" />
          </g>
          <g
             id="g6543">
            <rect
               class="st16"
               height="93.599998"
               width="38"
               x="275.70001"
               y="156.3"
               id="rect6541"
               style="fill:#fddd8d" />
          </g>
          <g
             id="g6547">
            <rect
               class="st17"
               height="19.1"
               width="38"
               x="423.79999"
               y="95.300003"
               id="rect6545"
               style="fill:#a6e1fb" />
          </g>
          <g
             id="g6551">
            <rect
               class="st18"
               height="19.1"
               width="38"
               x="349.70001"
               y="230.8"
               id="rect6549"
               style="fill:#50d27e" />
          </g>
          <g
             id="g6555">
            <rect
               class="st19"
               height="19.1"
               width="38"
               x="275.70001"
               y="230.8"
               id="rect6553"
               style="fill:#fdd267" />
          </g>
          <g
             id="g6559">
            <rect
               class="st20"
               height="19.1"
               width="38"
               x="423.79999"
               y="230.8"
               id="rect6557"
               style="fill:#4cc3f7" />
          </g>
          <g
             id="g6563">
            <rect
               class="st21"
               height="19.1"
               width="38"
               x="349.70001"
               y="125.8"
               id="rect6561"
               style="fill:#a7e9bf" />
          </g>
          <g
             id="g6567">
            <rect
               class="st10"
               height="19.1"
               width="38"
               x="275.70001"
               y="156.3"
               id="rect6565"
               style="fill:#fee8b3" />
          </g>
          <g
             id="g6571">
            <path
               class="st22"
               d="m 461.8,254 h -38 c -2.2,0 -4.1,-1.8 -4.1,-4.1 V 95.3 c 0,-2.2 1.8,-4.1 4.1,-4.1 h 38 c 2.2,0 4.1,1.8 4.1,4.1 v 154.6 c 0,2.3 -1.9,4.1 -4.1,4.1 z m -33.9,-8.1 h 29.9 V 99.3 h -29.9 z"
               id="path6569"
               style="fill:#333333" />
          </g>
          <g
             id="g6575">
            <path
               class="st22"
               d="m 387.7,254 h -38 c -2.2,0 -4.1,-1.8 -4.1,-4.1 V 125.8 c 0,-2.2 1.8,-4.1 4.1,-4.1 h 38 c 2.2,0 4.1,1.8 4.1,4.1 v 124.1 c 0,2.3 -1.8,4.1 -4.1,4.1 z m -33.9,-8.1 h 29.9 v -116 h -29.9 z"
               id="path6573"
               style="fill:#333333" />
          </g>
          <g
             id="g6579">
            <path
               class="st22"
               d="m 313.6,254 h -38 c -2.2,0 -4.1,-1.8 -4.1,-4.1 v -93.6 c 0,-2.2 1.8,-4.1 4.1,-4.1 h 38 c 2.2,0 4.1,1.8 4.1,4.1 v 93.6 c 0,2.3 -1.8,4.1 -4.1,4.1 z m -33.9,-8.1 h 29.8 v -85.5 h -29.8 z"
               id="path6577"
               style="fill:#333333" />
          </g>
        </g>
      </g>
      <path
         class="st22"
         d="m 502.1,78.6 c 5.5,0 9.9,-4.4 9.9,-9.9 v -22 c 0,-5.5 -4.4,-9.9 -9.9,-9.9 H 166 c -5.4,0 -9.9,4.4 -9.9,9.9 v 22 c 0,5.4 4.4,9.9 9.9,9.9 h 9.8 v 105.2 h -58.4 c 4.2,-6.2 6.7,-13.8 6.7,-21.8 V 126.5 L 152.6,84 c 0.8,-1.2 0.9,-2.8 0.2,-4.1 -0.7,-1.3 -2.1,-2.1 -3.5,-2.1 H 66.4 c -11,0 -19.9,8.7 -20.4,19.6 0,0.2 -0.1,0.3 -0.1,0.5 V 162 c 0,8.2 2.6,15.8 6.9,22.1 C 23.3,186.5 0,211.2 0,241.4 v 80.3 C 0,337.9 13.2,351 29.3,351 h 6.4 v 97 c 0,15 12.2,27.1 27.1,27.1 h 50 c 14.9,0 27.1,-12.2 27.1,-27.1 V 251.2 c 0,-0.1 0,-0.1 0,-0.2 v -16.9 h 35.9 v 35.1 H 166 c -5.4,0 -9.9,4.4 -9.9,9.9 v 22 c 0,5.4 4.4,9.8 9.9,9.8 h 72.8 L 182.4,432 c -0.6,1.2 -0.5,2.7 0.3,3.8 0.7,1.2 2,1.9 3.4,1.9 h 30 c 1.6,0 3,-0.9 3.6,-2.3 L 277.6,311 H 315 v 122.8 c 0,2.2 1.8,4 4,4 h 30 c 2.2,0 4,-1.8 4,-4 V 311 h 37.4 l 58,124.5 c 0.6,1.4 2,2.3 3.6,2.3 h 30 c 1.4,0 2.6,-0.7 3.4,-1.9 0.7,-1.1 0.8,-2.6 0.2,-3.8 L 429.3,311 h 72.8 c 5.5,0 9.9,-4.4 9.9,-9.8 v -22 c 0,-5.4 -4.4,-9.9 -9.9,-9.9 h -9.8 V 78.6 Z M 53.9,98.2 c 0,-6.9 5.6,-12.5 12.5,-12.5 h 75.4 L 118,121.3 H 53.9 Z m 0,31.1 h 62.2 V 162 c 0,17.2 -14,31.1 -31.1,31.1 -17.2,0 -31.1,-14 -31.1,-31.1 z M 117.3,192 87.8,252.8 58.2,192 h 1.9 c 6.8,5.6 15.4,9 24.9,9 9.5,0 18.1,-3.4 24.9,-9 z m -88,150.9 C 17.6,342.9 8,333.4 8,321.6 v -80.3 c 0,-24.6 18,-45 41.5,-48.8 l 34.3,70.4 v 80 H 43.6 v -91.7 c 0,-2.2 -1.8,-4 -4,-4 -2.2,0 -4,1.8 -4,4 v 91.7 z M 43.6,448 v -97.1 h 40.1 v 116.2 h -21 C 52.2,467.2 43.6,458.6 43.6,448 Z m 69.2,19.2 h -21 V 350.9 h 40.1 V 448 c 0,10.6 -8.6,19.2 -19.1,19.2 z m 23.1,-241 c -2.2,0 -4,1.8 -4,4 V 343 H 91.8 v -80.1 l 34.5,-71 h 98.2 c 9.5,0 17.2,7.7 17.2,17.2 0,9.4 -7.6,17.2 -17.2,17.2 h -88.6 z m 88.6,-42.4 H 183.8 V 78.6 H 484.3 V 269.2 H 183.8 v -35.1 h 40.7 c 14,0 25.2,-11.4 25.2,-25.2 0,-13.8 -11.3,-25.1 -25.2,-25.1 z m -11,246 H 192.3 L 247.6,311 h 21.2 z m 131.5,0 H 323 V 311 h 22 z m 130.8,0 H 454.6 L 399.3,311 h 21.2 z m 26.3,-152.6 c 1.1,0 1.9,0.8 1.9,1.9 v 22 c 0,1 -0.8,1.8 -1.9,1.8 H 166 c -1,0 -1.9,-0.8 -1.9,-1.8 v -22 c 0,-1 0.8,-1.9 1.9,-1.9 z M 166,70.6 c -1,0 -1.9,-0.8 -1.9,-1.9 v -22 c 0,-1.1 0.8,-1.9 1.9,-1.9 h 336.1 c 1.1,0 1.9,0.8 1.9,1.9 v 22 c 0,1 -0.8,1.9 -1.9,1.9 z"
         id="path6585"
         style="fill:#333333" />
    </g>
  </g>
</svg>
